<svg width="512" height="512" viewBox="0 0 512 512" xmlns="http://www.w3.org/2000/svg">
<defs>
<linearGradient id="tg" x1="0" y1="0" x2="1" y2="1">
<stop offset="0%" stop-color="#06d6a0"/>
<stop offset="100%" stop-color="#0fb5ba"/>
</linearGradient>
</defs>
<!-- Background -->
<rect width="512" height="512" rx="96" fill="#1a1a2e"/>

<!-- Infinity loop -->
<g transform="translate(256, 280)">
<path d="M-90,24 C-90,-24 -28,-24 0,12 C28,-24 90,-24 90,24 C90,72 28,72 0,36 C-28,72 -90,72 -90,24 Z" fill="none" stroke="url(#tg)" stroke-width="10" stroke-linecap="round" stroke-linejoin="round"/>

<!-- Graduation cap -->
<polygon points="0,-78 76,-46 0,-14 -76,-46" fill="#283548"/>
<polygon points="0,-74 70,-46 0,-18 -70,-46" fill="#334155"/>
<circle cx="0" cy="-78" r="7" fill="url(#tg)"/>
<path d="M0,-78 Q36,-70 48,-46" fill="none" stroke="url(#tg)" stroke-width="4" stroke-linecap="round"/>
<rect x="43" y="-46" width="12" height="22" rx="3" fill="url(#tg)"/>
<line x1="43" y1="-24" x2="55" y2="-24" stroke="#04b88a" stroke-width="2"/>
<line x1="45" y1="-20" x2="53" y2="-20" stroke="#04b88a" stroke-width="1.5"/>

<!-- Energy dots -->
<circle cx="-100" cy="5" r="5" fill="#06d6a0" opacity="0.7"/>
<circle cx="100" cy="5" r="5" fill="#0fb5ba" opacity="0.7"/>
<circle cx="0" cy="80" r="4" fill="#06d6a0" opacity="0.5"/>
<circle cx="-60" cy="-70" r="3.5" fill="#0fb5ba" opacity="0.4"/>
<circle cx="70" cy="-70" r="3" fill="#06d6a0" opacity="0.35"/>
</g>
</svg>
